HIERARCHY
ROOT Spine1
{
	OFFSET 0.000000 0.000000 0.000000
	CHANNELS 6 Xposition Yposition Zposition Yrotation Zrotation Xrotation
	JOINT ShoulderCenter
	{
		OFFSET -0.618215 18.271749 -0.044608
		CHANNELS 3 Yrotation Zrotation Xrotation
		JOINT Head
		{
			OFFSET 0.780213 17.924028 -2.960563
			CHANNELS 3 Yrotation Zrotation Xrotation
			End Site
			{
				OFFSET 0.000000 0.000000 0.000000
			}
		}
	}
	JOINT ShoulderCenterRight
	{
		OFFSET -0.618215 18.271749 -0.044608
		CHANNELS 3 Yrotation Zrotation Xrotation
		JOINT RightShoulder
		{
			OFFSET 18.957802 -12.571615 1.742935
			CHANNELS 3 Yrotation Zrotation Xrotation
			JOINT RightElbow
			{
				OFFSET 9.592249 -26.713556 3.267360
				CHANNELS 3 Yrotation Zrotation Xrotation
				JOINT RightWrist
				{
					OFFSET 6.377637 -22.349566 -3.931570
					CHANNELS 3 Yrotation Zrotation Xrotation
					JOINT RightHand
					{
						OFFSET 0.366336 -4.997246 -1.670384
						CHANNELS 3 Yrotation Zrotation Xrotation
						End Site
						{
							OFFSET 0.000000 0.000000 0.000000
						}
					}
				}
			}
		}
	}
	JOINT ShoulderCenterLeft
	{
		OFFSET -0.618215 18.271749 -0.044608
		CHANNELS 3 Yrotation Zrotation Xrotation
		JOINT LeftShoulder
		{
			OFFSET -17.904209 -13.642335 -3.446245
			CHANNELS 3 Yrotation Zrotation Xrotation
			JOINT LeftElbow
			{
				OFFSET -8.364469 -24.754250 -1.719737
				CHANNELS 3 Yrotation Zrotation Xrotation
				JOINT LeftWrist
				{
					OFFSET -1.382601 -22.248871 -8.410597
					CHANNELS 3 Yrotation Zrotation Xrotation
					JOINT LeftHand
					{
						OFFSET 0.987452 -3.613607 0.213432
						CHANNELS 3 Yrotation Zrotation Xrotation
						End Site
						{
							OFFSET 0.000000 0.000000 0.000000
						}
					}
				}
			}
		}
	}
	JOINT Spine
	{
		OFFSET 0.618214 -18.271749 0.044608
		CHANNELS 3 Yrotation Zrotation Xrotation
		JOINT HipCenterRight
		{
			OFFSET 1.028509 -6.352623 -5.496335
			CHANNELS 3 Yrotation Zrotation Xrotation
			JOINT RightHip
			{
				OFFSET 8.641552 -8.291084 0.126696
				CHANNELS 3 Yrotation Zrotation Xrotation
				JOINT RightKnee
				{
					OFFSET 1.945812 -49.036755 9.188271
					CHANNELS 3 Yrotation Zrotation Xrotation
					JOINT RightAnkle
					{
						OFFSET -0.782783 -35.962685 1.777959
						CHANNELS 3 Yrotation Zrotation Xrotation
						JOINT RightFoot
						{
							OFFSET 2.597723 -5.698556 -5.949855
							CHANNELS 3 Yrotation Zrotation Xrotation
							End Site
							{
								OFFSET 0.000000 0.000000 0.000000
							}
						}
					}
				}
			}
		}
		JOINT HipCenterLeft
		{
			OFFSET 1.028509 -6.352623 -5.496335
			CHANNELS 3 Yrotation Zrotation Xrotation
			JOINT LeftHip
			{
				OFFSET -7.820205 -8.282742 -2.834868
				CHANNELS 3 Yrotation Zrotation Xrotation
				JOINT LeftKnee
				{
					OFFSET -4.238897 -47.915482 9.590077
					CHANNELS 3 Yrotation Zrotation Xrotation
					JOINT LeftAnkle
					{
						OFFSET 1.890875 -35.341911 2.754498
						CHANNELS 3 Yrotation Zrotation Xrotation
						JOINT LeftFoot
						{
							OFFSET -2.728528 -7.142753 -4.019785
							CHANNELS 3 Yrotation Zrotation Xrotation
							End Site
							{
								OFFSET 0.000000 0.000000 0.000000
							}
						}
					}
				}
			}
		}
	}
}
MOTION
Frames: 17
Frame Time: 0.033333
0.000000 0.000000 0.000000 0.000000 0.000000 0.000000 0.000000 0.000000 0.000000 0.0 0.0 0.0 0.000000 0.000000 0.000000 0.000000 0.000000 0.000000 0.000000 0.000000 0.000000 0.000000 0.000000 0.000000 0.0 0.0 0.0 0.000000 0.000000 0.000000 0.000000 0.000000 0.000000 0.000000 0.000000 0.000000 0.000000 0.000000 0.000000 0.0 0.0 0.0 0.000000 0.000000 0.000000 0.000000 0.000000 0.000000 0.000000 0.000000 0.000000 0.000000 0.000000 0.000000 0.000000 0.000000 0.000000 0.0 0.0 0.0 0.000000 0.000000 0.000000 0.000000 0.000000 0.000000 0.000000 0.000000 0.000000 0.000000 0.000000 0.000000 0.0 0.0 0.0 
-0.003325 -0.015649 -0.023127 -0.000722 0.022553 -0.023131 -0.014919 -0.053431 0.141566 0.0 0.0 0.0 0.062226 0.001061 0.041169 -0.033304 0.056430 -0.112095 0.046525 0.111195 0.232273 -0.197575 0.256097 -1.587783 0.0 0.0 0.0 0.040623 -0.047830 -0.021738 -0.097475 0.070984 0.273390 -0.060079 0.292520 -0.778053 0.258815 -0.267368 0.997479 0.0 0.0 0.0 0.027677 -0.030368 0.008642 -0.020176 0.031030 -0.019813 -0.000209 -0.003426 0.010906 -0.003230 -0.052855 0.028951 -0.441013 0.280334 -0.328947 0.0 0.0 0.0 0.000005 0.000023 -0.000014 -0.000002 -0.000019 -0.000020 0.000002 0.000027 -0.000004 0.058537 -0.318205 0.318276 0.0 0.0 0.0 
0.038287 -0.012821 -0.035906 -0.001588 -0.079119 -0.040422 0.031721 0.243840 0.187125 0.0 0.0 0.0 0.062035 -0.016863 0.042695 -0.008364 0.235113 -0.103951 0.111123 0.367815 0.622425 -1.968793 5.558834 -5.381910 0.0 0.0 0.0 0.061867 -0.063312 -0.034938 -0.103974 0.209888 0.263267 -0.103730 0.459651 -1.052739 0.732665 -1.193219 2.841820 0.0 0.0 0.0 0.005009 -0.002228 0.019027 -0.003207 0.088695 -0.004378 0.000000 -0.000004 0.000027 -0.004562 -0.084647 0.017906 -0.073047 0.244384 0.402123 0.0 0.0 0.0 0.020920 0.057340 -0.042935 0.002820 0.025956 0.026771 -0.000345 -0.014033 0.013965 0.065461 -0.288937 0.256382 0.0 0.0 0.0 
0.037772 -0.029984 -0.058842 -0.001471 -0.087972 -0.036303 0.042837 0.313101 0.191568 0.0 0.0 0.0 0.113558 -0.036157 0.078655 -0.030661 0.489185 -0.254894 0.075183 0.938856 0.866134 -2.355490 6.935651 -4.145220 0.0 0.0 0.0 0.069984 -0.063515 -0.041083 -0.128841 0.368359 0.303025 0.030345 0.118762 -1.192783 0.658394 -0.321374 2.458191 0.0 0.0 0.0 0.021043 -0.022487 0.009787 0.021281 0.120411 0.018649 0.001826 0.012893 -0.014917 -0.005290 -0.111455 -0.010608 -0.299247 0.325408 0.090827 0.0 0.0 0.0 0.071151 0.057634 -0.096258 0.006543 0.076044 0.097335 -0.007340 -0.096847 0.003826 0.080835 -0.253609 0.163315 0.0 0.0 0.0 
0.064427 -0.029033 -0.052357 -0.001188 -0.146254 -0.023664 0.067227 0.432073 0.087121 0.0 0.0 0.0 0.209437 -0.138859 0.151809 -0.080194 1.132774 -0.625468 0.165249 2.546520 2.324181 -2.190550 6.364621 -4.614272 0.0 0.0 0.0 0.058123 -0.025165 -0.039441 -0.133602 0.547485 0.279446 0.092924 -0.041625 -1.255584 0.437603 0.706730 1.480529 0.0 0.0 0.0 0.032699 -0.046816 -0.048020 0.089535 0.160304 0.083542 0.018163 0.112649 -0.076174 -0.012666 -0.257612 -0.003645 -0.099205 0.458959 0.843051 0.0 0.0 0.0 0.104418 0.095574 -0.145248 0.010524 0.141526 0.198405 -0.011726 -0.147641 -0.004017 0.040400 -0.102303 0.045122 0.0 0.0 0.0 
0.065582 -0.022942 -0.068569 -0.001841 -0.136103 -0.043088 0.057042 0.390248 0.157565 0.0 0.0 0.0 0.237255 -0.229887 0.178740 -0.100579 1.620496 -0.864473 -0.163804 5.854322 3.714212 -2.447483 7.308767 4.328639 0.0 0.0 0.0 0.089723 -0.014502 -0.065579 -0.173008 0.642979 0.374448 0.156562 -0.181965 -1.461643 0.619373 0.456001 2.199948 0.0 0.0 0.0 0.048596 -0.066001 -0.052224 0.127796 0.182821 0.119914 0.008888 0.074922 -0.132021 -0.009743 -0.197626 -0.001406 0.364039 0.209827 1.274302 0.0 0.0 0.0 0.131309 0.090042 -0.171748 0.004591 0.141235 0.263927 -0.008332 -0.125363 0.026343 0.157722 0.203002 -0.710372 0.0 0.0 0.0 
0.071691 -0.022802 -0.070381 -0.002015 -0.145832 -0.047259 0.062527 0.429889 0.178792 0.0 0.0 0.0 0.240601 -0.242215 0.182109 -0.090819 2.434546 -1.147971 -0.646807 11.327532 7.391084 0.872692 -2.612605 0.007343 0.0 0.0 0.0 0.077684 -0.005315 -0.058175 -0.174224 0.668861 0.372553 0.133696 -0.101881 -1.564960 0.623705 0.762617 2.168612 0.0 0.0 0.0 0.040916 -0.058003 -0.056943 0.140236 0.192142 0.131711 0.006633 0.064670 -0.140257 -0.006733 -0.137005 -0.001951 1.321298 -0.586353 1.505627 0.0 0.0 0.0 0.156831 0.107822 -0.205238 -0.002239 0.128976 0.313134 -0.010299 -0.147508 0.021834 0.117823 0.228658 -0.643152 0.0 0.0 0.0 
0.088521 -0.027627 -0.073695 -0.002156 -0.155165 -0.050513 0.074092 0.503163 0.187473 0.0 0.0 0.0 0.279285 -0.265276 0.209964 0.108315 4.307837 -1.307832 -0.643889 13.122131 9.987515 -4.655058 12.250059 10.697884 0.0 0.0 0.0 0.059861 0.018426 -0.049167 -0.170909 0.830463 0.329128 0.212194 -0.335997 -1.455066 0.404129 1.209367 1.262946 0.0 0.0 0.0 0.047726 -0.069129 -0.074174 0.132721 0.230377 0.123935 0.008424 0.068924 -0.114956 -0.011905 -0.238716 0.005220 -0.221909 0.207318 -0.011648 0.0 0.0 0.0 0.150607 0.136552 -0.209031 -0.007594 0.114970 0.342129 -0.010757 -0.159859 0.030993 0.293934 0.081954 -0.892096 0.0 0.0 0.0 
0.089435 -0.034711 -0.081182 -0.002963 -0.131958 -0.075493 0.063276 0.455688 0.251711 0.0 0.0 0.0 0.301583 -0.287395 0.226847 0.424038 7.748265 -1.840355 -0.984666 16.125191 13.375789 -4.294634 12.377075 2.290090 0.0 0.0 0.0 0.083958 -0.007858 -0.062467 -0.244556 1.081889 0.489717 0.347581 -0.675559 -1.670913 0.266157 2.283969 0.512621 0.0 0.0 0.0 0.055934 -0.079531 -0.078951 0.120746 0.252174 0.112124 0.002360 0.028754 -0.076790 -0.010924 -0.210258 0.026519 -1.003944 0.566770 -0.927940 0.0 0.0 0.0 0.154635 0.171948 -0.226096 -0.021701 0.066965 0.394384 -0.013278 -0.182270 0.016823 0.216564 0.141745 -0.775654 0.0 0.0 0.0 
0.100683 -0.037456 -0.075865 -0.002718 -0.123251 -0.069237 0.065053 0.461740 0.235100 0.0 0.0 0.0 0.305509 -0.315286 0.232055 0.598201 9.321217 -2.028961 -1.723588 19.598791 16.637035 -12.466105 29.705889 9.236099 0.0 0.0 0.0 0.075928 -0.018653 -0.054265 -0.274122 1.204344 0.549153 0.374471 -0.719793 -1.871191 0.397650 2.383392 1.009279 0.0 0.0 0.0 0.051138 -0.076037 -0.089872 0.122517 0.268756 0.113578 -0.002195 0.006549 -0.086365 -0.007755 -0.186762 -0.073440 -0.634409 0.603263 -0.006791 0.0 0.0 0.0 0.156481 0.205169 -0.240055 -0.036189 0.003718 0.417629 -0.015642 -0.204041 0.004685 0.145213 0.277964 -0.786462 0.0 0.0 0.0 
0.097154 -0.035700 -0.073195 -0.002284 -0.182564 -0.051900 0.100196 0.673543 0.222619 0.0 0.0 0.0 -0.013825 -0.089952 -0.000909 0.991271 11.051387 -1.527218 -4.390234 27.251104 21.759911 -6.095076 20.532303 -7.296321 0.0 0.0 0.0 -0.015386 0.132695 -0.013787 -0.238716 1.162605 0.455961 0.338723 -0.569789 -2.198089 1.160559 1.694698 4.092573 0.0 0.0 0.0 -0.089527 0.083450 -0.107885 0.250940 0.190720 0.237936 -0.012966 -0.014359 -0.257998 -0.004098 -0.130609 -0.114389 -0.081565 0.609115 1.232986 0.0 0.0 0.0 0.260758 0.124586 -0.321520 -0.044267 -0.000320 0.500111 -0.018333 -0.254383 0.026754 0.093704 0.555138 -1.051512 0.0 0.0 0.0 
0.091600 -0.030690 -0.069237 -0.002038 -0.210651 -0.042708 0.113231 0.765044 0.260149 0.0 0.0 0.0 -0.226236 -0.106694 -0.140315 1.548400 13.849976 -0.937980 -5.167251 29.017891 22.648918 -9.995179 29.100952 -0.519903 0.0 0.0 0.0 -0.022923 0.178037 -0.016746 -0.290212 1.293867 0.576546 0.429099 -0.797436 -2.370255 1.169985 3.051731 3.986784 0.0 0.0 0.0 -0.176403 0.181748 -0.120187 0.261591 0.113784 0.249300 -0.013079 -0.013528 -0.264789 -0.006413 -0.128158 0.003744 0.504900 0.126185 1.385351 0.0 0.0 0.0 0.309505 0.048644 -0.345759 -0.033513 0.066425 0.526022 -0.026691 -0.357276 0.020312 0.091845 0.514420 -0.988245 0.0 0.0 0.0 
0.102939 -0.016803 -0.056720 -0.000321 -0.260099 0.008683 0.143229 0.911304 0.140210 0.0 0.0 0.0 -0.492975 0.208920 -0.345500 2.442285 17.277925 0.879789 -9.009834 36.535515 25.574474 -6.450736 25.719936 -13.712571 0.0 0.0 0.0 -0.064425 0.231864 0.004582 -0.296006 1.420395 0.566549 0.481728 -0.945795 -2.369528 1.190734 3.619017 4.008574 0.0 0.0 0.0 -0.273962 0.295193 -0.117284 0.271033 0.027668 0.259639 -0.013893 -0.004757 -0.327131 -0.024406 -0.221011 0.679771 -1.530280 -0.018090 -3.503710 0.0 0.0 0.0 0.337725 -0.004588 -0.356419 -0.022733 0.087849 0.452023 -0.031331 -0.388510 -0.018567 0.065263 0.256016 -0.545431 0.0 0.0 0.0 
0.104690 -0.009441 -0.053072 -0.000053 -0.257455 0.015958 0.150618 0.964980 0.167134 0.0 0.0 0.0 -0.452238 0.170977 -0.315139 3.293495 22.300350 1.884865 -10.227583 38.919197 24.680386 -9.364160 34.862724 -10.629982 0.0 0.0 0.0 -0.081445 0.272572 0.009767 -0.312107 1.444904 0.607499 0.504931 -1.009902 -2.378141 1.047624 4.133800 3.350521 0.0 0.0 0.0 -0.271494 0.291413 -0.122366 0.242116 0.033586 0.231806 0.003265 0.083621 -0.318488 -0.030054 -0.396273 0.571751 -0.782964 0.151511 -1.395352 0.0 0.0 0.0 0.291716 0.043501 -0.325020 -0.027236 0.048358 0.415531 -0.032758 -0.353830 -0.091615 0.148953 -0.063448 -0.297371 0.0 0.0 0.0 
0.095680 -0.022897 -0.057745 -0.000253 -0.232287 0.008747 0.144160 0.935673 0.199215 0.0 0.0 0.0 -0.439230 0.173190 -0.306728 3.920022 26.380774 2.543772 -13.204533 43.484627 27.237431 -7.211373 29.814236 -14.489304 0.0 0.0 0.0 -0.089350 0.269773 0.016333 -0.329309 1.474711 0.650431 0.485688 -0.972435 -2.263169 0.605885 4.359953 1.455762 0.0 0.0 0.0 -0.264581 0.284865 -0.114394 0.187040 0.014438 0.179245 0.004829 0.078526 -0.253532 -0.031025 -0.417597 0.572982 -3.427554 1.635559 -4.137339 0.0 0.0 0.0 0.207814 0.119533 -0.263535 -0.030939 -0.019577 0.306210 -0.033182 -0.392074 -0.046192 0.019642 0.035953 -0.104334 0.0 0.0 0.0 
0.096684 -0.019941 -0.056076 0.000079 -0.242417 0.018667 0.159546 1.041213 0.234177 0.0 0.0 0.0 -0.419538 0.140658 -0.290768 4.801581 32.508835 3.444996 -13.394752 44.155777 25.963438 -7.408512 28.027096 -11.464870 0.0 0.0 0.0 -0.156392 0.372099 0.047919 -0.303167 1.428288 0.585398 0.521492 -1.078547 -2.224053 0.666301 5.035661 1.575343 0.0 0.0 0.0 -0.278027 0.300379 -0.114640 0.163348 -0.004284 0.156789 0.007997 0.093207 -0.243667 -0.030434 -0.395687 0.593940 -3.245327 1.417999 -4.219551 0.0 0.0 0.0 0.126228 0.123603 -0.178504 -0.015648 -0.007601 0.159851 -0.031361 -0.398845 -0.004937 0.052689 -0.023098 -0.104014 0.0 0.0 0.0 
0.095438 -0.010896 -0.053024 0.000373 -0.244826 0.026996 0.185013 1.214202 0.284276 0.0 0.0 0.0 -0.448012 0.123444 -0.308070 5.177468 35.170635 4.074920 -19.652397 50.897495 33.242256 -5.863982 28.066231 -19.484825 0.0 0.0 0.0 -0.169886 0.423575 0.048394 -0.299559 1.450124 0.570483 0.530492 -1.126079 -2.065868 0.487516 5.042922 0.801862 0.0 0.0 0.0 -0.290794 0.313894 -0.121565 0.174174 -0.006028 0.167203 0.003111 0.073167 -0.271497 -0.029923 -0.400773 0.553617 -2.558314 1.254123 -2.932230 0.0 0.0 0.0 0.137294 0.106976 -0.184222 -0.010482 0.042627 0.214074 -0.033224 -0.368611 -0.079325 0.240958 -0.283679 -0.214310 0.0 0.0 0.0 
